<svg xmlns="http://www.w3.org/2000/svg" width="800" height="800" overflow="hidden"><path d="M900 900H-100V-100H900V900z" fill="#ecf0f1"/><path d="M177.01 426.763c-16.298-38.549-13.897-54.479-9.555-84.614-7.481 8.103-11.96 18.972-24.167 29.027.947-7.222 15.368-49.1 16.513-52.175-13.838 12.614-21.488 15.303-28.112 17.9 4.47-6.672 7.437-14.426 14.04-28.56h41.504c.832 15.412 3.838 34.449 8.323 51.17-2.372 1.574-8.607 11.449-18.547 67.252zm435.066-112.56c-.17 13.82-4.831 39.721-10.469 57.127 2.898 1.948 6.275 4.223 5.54 3.633 21.424 17.2 24.87 20.17 27.051 48.19 15.567-33.589 2.362-76.706 1.58-108.947h-23.702zm23.731 0h15.988c-2.095 7.087-6.97 17.236-12.32 23.878-2.008-7.794-3.113-18.886-3.668-23.879z" fill="#1b141c"/><path d="M163.156 314.332c-12.236 32.148-12.956 40.176-19.436 55.944 10.26-8.453 17.953-25.132 24.84-29.592-1.188 10.872-6.84 32.832-.54 56.88a193.013 193.013 0 009.04 26.532c.935-12.816 2.843-50.148 14.684-61.488-8.136 21.42-12.78 49.428-12.78 71.28-23.076-40.212-17.78-62.28-12.348-90.324-8.424 9.612-10.8 21.636-26.964 31.428 5.508-11.628 7.275-25.452 18.684-53.784-9.468 9.468-15.84 13.248-28.476 16.992 4.745-7.852 8.92-17.806 12.59-25.899h3.894c-3.596 7.755-7.311 15.574-11.84 22.335 9.468-3.708 18.536-10.62 28.652-20.304zm438.451 56.998c.778.537 6.034 4.148 8.396 6.221 9.85 8.647 22.55 16.539 21.664 55.008 16.355-28.253 14.235-70.07 9.14-92.844 7.262-7.808 12.165-17.43 14.667-25.538l-4.33-.04c-2.096 7.089-5.959 15.624-11.308 22.266-2.016-7.794-3.114-16.484-3.669-21.477l-.388-.72c.78 32.241 11.214 70.516-.875 106.257-2.182-28.019-8.676-33.123-33.297-49.133z"/><path d="M743.501 764.846c-7.905-17.085-29.502-42.404-53.496-49.399-29.66-8.65-96.613-19.109-121.438-24.923-19.901-4.665-59.984-40.658-74.03-52.74-2.52-2.16-4.584-6.62-4.634-9.936-.5-39.11 15.102-143.006 15.102-143.006H294.999s15.602 103.892 15.095 143.006c-.04 3.316-2.113 7.776-4.626 9.936-14.047 12.082-54.13 48.075-74.03 52.74-24.83 5.814-91.783 16.629-121.44 25.28-24 6.99-45.59 31.953-53.495 49.039-13.35 28.829-16.503 81-16.503 126h720c0-44.997-3.157-97.168-16.499-125.997z" fill="#f0c7b1"/><path d="M612.962 708.254c87.63 12.752 124.51 31.35 136.058 182.596H760c0-45-3.157-97.171-16.499-126-7.905-17.086-29.502-42.404-53.496-49.4-29.66-8.65-96.613-19.108-121.438-24.922-19.901-4.666-65.672-43.448-77.915-58.86 12.096 16.934 46.047 56.178 75.794 66.456 14.23 4.918 26.082 7.157 46.516 10.13zm-379.404-10.13c29.747-10.274 63.695-49.522 75.794-66.456-12.24 15.408-58.01 54.194-77.915 58.86-24.825 5.814-91.778 16.628-121.438 25.28-23.994 6.99-45.59 31.953-53.496 49.038-13.342 28.83-16.5 81-16.5 126h10.98c11.478-150.278 48.51-169.858 136.06-182.595 20.43-2.97 32.284-5.21 46.515-10.127z" fill="#ffe4d6"/><path d="M384.326 757.078s-18.267-5.793-25.499-8.565c-37.616-14.432-159.822-23.785-159.822-23.785s128.714 5.108 157.118 10.004c-1.648-17.16-10.86-72.014-10.86-72.014s18.536 60.534 23.072 75.805c2.426 8.165 15.99 18.555 15.99 18.555zm38.876-4.832c-.32.263-.687.605-1.087.965a8.166 8.166 0 001.087-.965zm-38.876 4.832s10.415 10.77 15.649 10.908c6.876.183 17.38-10.437 22.144-14.775-4.554 3.445-14.973 5.008-19.116 5.17-4.788.183-18.677-1.303-18.677-1.303zm75.665-27.069c-5.562.893-15.79 2.84-15.79 2.84l8.233-53.603c-2.325 11.055-16.106 58.36-29.232 73 6.876-5.817 22.169-8.607 29.967-9.734 36.85-5.342 36.835-5.339 147.823-17.784 0 0-104.656-.558-141.001 5.281z" fill="#e1ac8f"/><path d="M743.501 764.846c-7.905-17.085-29.502-42.404-53.496-49.399-29.66-8.65-96.613-19.109-121.438-24.923-19.901-4.665-59.984-40.658-74.03-52.74-2.52-2.16-4.584-6.62-4.634-9.936-.5-39.11 15.102-143.006 15.102-143.006H294.999s15.602 103.892 15.095 143.006c-.04 3.316-2.113 7.776-4.626 9.936-14.047 12.082-54.13 48.075-74.03 52.74-24.83 5.814-91.783 16.629-121.44 25.28-24 6.99-45.59 31.953-53.495 49.039-13.35 28.829-16.503 81-16.503 126h720c0-44.997-3.157-97.168-16.499-125.997z" fill="none" stroke="#c27b55" stroke-width="5.4"/><path d="M124.272 162.248a3.725 3.725 0 01-.051-.515c-.094-7.38 1.819-22.721 3.098-32.078-15.699-1.984-38.937-1.975-54.637.016 1.279 9.359 3.19 24.687 3.094 32.062a3.11 3.11 0 01-.03.367c3.825 3.586 7.667 6.528 11.055 8.151 5.312 2.546 21.035 2.427 26.401 0 3.411-1.541 7.254-4.439 11.07-8.003z" fill="url(#SvgjsLinearGradient3048)" transform="matrix(3.6 0 0 3.6 40 45.646)"/><path d="M193.972 894.37l4.763-219.066s36.698-8.954 59.886-22.727c62.986 79.03 250.024 62.399 282.01-2.232 5.36 1.89 9.795 4.309 15.343 6.167 18 12.19 33.167 16.178 33.167 16.178l3.366 222.066c-51.43.677-398.535-.385-398.535-.385z" fill="#f5f4f5"/><path d="M594.45 685.384c-15.25-2.589-27.4-6.11-34.027-12.759-19.234 36.09-96.346 58.96-121.878 62.313 73.995-22.594 105.077-38.927 117.353-77.7 7.164 8.58 23.48 12.777 44.327 16.338l-5.774 11.808zm-364.838-11.967c5.235-1.123 7.848-4.442 13.043-5.735l-5.5-6.72c-11.211 8.042-32.296 11.897-57.24 15.926l.676 13.456c14.242-2.844 28.141-6.436 41.144-11.962 26.94 30.546 69.005 45.572 111.816 51.793-53.704-12.906-84.499-34.69-103.939-56.758z" fill="#fff"/><path d="M536.3 657.844c-21.345 40.9-182.664 88.542-273.633 3.117-5.655 2.214-22.575 7.506-22.575 7.506 66.261 83.088 260.442 83.617 312.127-.403-.223-.086-10.663-7.765-15.92-10.22z" fill="#dfdde2"/><path d="M540.429 649.873c-36.313 66.87-225.28 76.335-281.66 2.25-20.592 5.602-40.389 17.554-60.322 20.545l-4.475 221.703 398.53.385-3.077-224.59c-12.128-2.545-23.404-9.853-33.314-14.018-5.48-2.3-10.13-4.37-15.682-6.275zm-283.025 4.486c50.051 83.11 247.741 66.438 285.909.356 4.63 1.797 5.814 2.506 11.181 4.259-39.535 76.349-235.101 100.681-315.09 4.13.562-.145 12.36-6.794 18-8.745zm-21.97 11.991c64.666 97.366 278.135 82.282 322.498-4.633 6.376 5.008 16.308 10.76 28.57 13.446l5.976 212.688-397.357.058 6.854-209.877c10.022-5.036 26.114-8.751 33.458-11.682z" fill="#b8b6c9"/><path d="M23.696 893.683c-9.266-49.867-8.251-171.331 32.447-171.075 47.29-19.12 105.368-41.055 154.087-55.12 24.869-26.086 48.37-50.893 94.277-76.73 1.4 9.356 6.746 30.747.04 42.382-4.879 8.468-20.82 20.074-34.395 30.125-7.305 9.792-14.137 19.347-23.757 32.72 18.605 80.285 34.565 121.61 36.35 191.244 0 0-5.228 2.48 232.095 1.43 7.974-80.42 17.975-120.82 37.365-194.753 0 0-15.51-18.05-25.946-31.932-7.394-7.19-30.096-27.115-31.824-31.144-4.23-9.867-1.972-22.277.396-40.921 38.855 17.543 61.2 43.276 93.896 76.69 27.824 7.63 111.095 35.882 152.801 54.778 14.274-.396 22.331 7.197 28.34 19.678 19.458 40.302 14.853 98.27 7.848 154.04-68.728.112-558.123 7.963-754.02-1.41z" fill="#1d282e"/><path d="M305.95 600.337c.576 3.852 1.095 7.506 1.48 10.948-.785.957-61.963 84.07-62.41 84.69 15.034-34.197 36.54-69.631 60.93-95.638zm187.841 0c-.572 3.852-.662 7.506-1.048 10.948.785.957 60.952 80.888 61.395 81.511-15.93-31.86-35.957-66.452-60.347-92.459zM634.029 712.2c-15.408 22.432-18.698 30.175-35.564 52.405 3.855 0 10.076.598 13.932.598 13.19-22.626 13.215-34.143 21.632-53.003zm15.79 162.81c13.654-32.04 24.962-60.16 38.66-92.246l-4.49-7.25c-11.408 32.957-23.514 66.448-34.17 99.496zM187.773 765.203c3.856 0 10.076-.598 13.936-.598-16.866-22.23-20.157-23.62-35.561-46.051 8.41 18.86 8.435 24.023 21.625 46.649zm-71.593 10.31l-4.49 7.25c13.702 32.087 17.155 60.207 30.813 92.247-10.66-33.048-14.915-66.539-26.323-99.497z" fill="#101a1f"/><path d="M276.297 655.064c4.252-5.925 18.853-26.179 30.964-45.22 3.556 19.646-2.974 31.3-30.964 45.22zm216.367-46.522c9.191 15.825 20.023 31.579 31.19 46.09-30.254-13.777-32.288-27.864-31.19-46.09z" fill="#070c0f"/><path d="M494.745 590.538c.029-.22.061-.425.083-.626 65.135 35.996 102.873 90.072 146.689 130.38-1.613 2.596-4.42 4.296-6.073 6.859-45.882-34.913-67.687-87.7-140.699-136.613zm-196.495 2.387c-54.123 29.567-130.471 120.085-137.945 126.968 1.613 2.607 2.488 2.077 4.14 4.637 45.886-34.91 58.41-69.466 133.805-131.605zM741.528 721.38c-3.6-2.876-88.725-36.14-153.323-53.888 121.312 58.676 164.113 66.762 185.295 87.555-1.379-3.596-4.19-34.441-31.972-33.667zM210.85 666.844c-48.686 14.09-111.02 36.352-154.71 55.767-19.31.382-33.149 28.548-36.111 57.903 26.863-60.527 13.59-19.836 190.821-113.67z" fill="#2d373d"/><path d="M783.76 801.869c-1.224-31.086-10.998-83.171-42.088-80.856-2.57-2.196-74.959-35.161-152.225-56.2-26.471-26.838-59.454-63.353-94.936-75.445-2.56 23.14-5.317 38.24.778 45.77 8.067 8.78 17.748 17.565 27.244 23.48 16.618 22.09 29.3 35.2 29.3 35.2-19.547 74.531-31.733 112.73-39.502 193.277H287.673c-7.765-80.543-19.955-118.742-39.503-193.277 0 0 12.68-13.114 29.3-35.2 9.501-5.919 19.178-14.7 27.245-23.48 6.092-7.53 3.338-22.63.778-45.77-35.482 12.092-68.468 48.607-94.936 75.445-77.266 21.042-149.655 54.004-152.225 56.2-31.094-2.315-40.868 49.77-42.088 80.856-1.48 37.753 5.166 89.776 5.706 93.376h756.104c.54-3.603 7.186-55.623 5.706-93.376zM302.743 633.144c-8.13 8.039-13.17 11.452-23.303 19.015 17.384-22.575 15.627-19.559 27.749-40.424.543 8.971-2.83 19.814-4.446 21.409zM28.58 888.146c-3.895-46.238-10.497-87.876 1.548-133.17 4.612-17.378 8.943-29.143 26.838-30.633 3.841 19.937 29.275 103.406 51.473 160.318-22.414-87.09-19.12-67.715-29.588-102.427-3.47-11.646-6.675-23.35-10.725-34.819-2.819-7.97-5.94-15.793-8.143-23.95l145.559-53.515c-1.005 1.02-46.422 48.363-47.517 49.695 6.65 10.875 28.138 25.999 39.042 42.329-44.77 4.226-66.629 11.422-82.8 13.824 1.192 3.308 32.62 91.27 35.914 99.561-5.325-28.501-17.338-73.07-31.093-97.96 5.076-.644 65.077-8.97 84.214-12.517-5.313-10.274-28.954-30.373-41.612-45.428 74.326-65.383 91.52-98.647 142.535-127.634.54 5.432 1.595 10.84 1.98 16.268-56.862 84.719-63.537 84.841-63.537 84.841 16.506 64.116 37.916 128.967 37.916 194.663l-252.004.554zm468.677-255.002c-1.613-1.595-4.99-12.438-4.446-21.41 12.121 20.87 10.364 17.85 27.749 40.425-10.134-7.563-15.178-10.973-23.303-19.015zm274.161 255.002l-252-.554c0-65.696 21.41-130.55 37.916-194.663 0 0-6.675-.122-63.537-84.841.382-5.429 1.437-10.836 1.98-16.268 51.016 28.987 68.206 62.25 142.535 127.634-12.658 15.059-36.299 35.158-41.612 45.428 19.134 3.543 79.135 11.873 84.214 12.518-13.752 24.89-25.765 69.458-31.093 97.96 3.294-8.295 34.722-96.254 35.914-99.562-16.171-2.402-38.03-9.598-82.8-13.824 10.9-16.33 32.393-31.45 39.042-42.33-1.098-1.331-46.512-48.675-47.517-49.694.004 0 145.56 53.514 145.56 53.514-2.2 8.162-5.325 15.98-8.144 23.951-4.05 11.47-7.254 23.173-10.725 34.82-10.468 34.714-7.174 15.335-29.588 102.426 22.198-56.915 47.628-140.381 51.473-160.318 17.895 1.49 22.226 13.255 26.838 30.632 12.042 45.295 5.44 86.937 1.544 133.171z"/><path d="M204.416 349.284c-5.346-8.863-22.777-33.116-36.112-29.714-10.843 2.779-10.703 17.895-11.541 26.838-1.224 13.118-1.67 35.97 1.89 45.244 3.423 8.903 14.256 26.108 20.98 32.67 8.277 8.046 21.492 33.69 23.12 36.35 2.56 4.204 7.693 10.224 15.57 9.748 11.055-.666 20.606-11.113 21.474-16.146 4.683-27.324-21.467-81.928-35.381-104.99z" fill="#f0c7b1" stroke="#c27b55" stroke-width="5.4"/><path d="M199.12 403.273c-.515-2.027.025-5.447.555-8.744.478-3.006.928-5.847.655-7.855-1.04-7.524-6.894-21.816-10.714-29.564-4.403-8.913-11.516-20.142-20.444-23.036-3.687-1.199-6.117.234-7.52 1.685-1.037 1.065-1.271 2.322-.933 2.473.342.148 1.105-.893 2.221-1.868.915-.8-1.829-.144 0 0-.738 3.744-3.114 22.687-1.476 36.514 1.29 10.88 3.78 19.005 4.547 20.222.112 1.281.299 2.538.576 3.754 3.607 15.876 27.065 36.638 32.522 42.552 1.008 1.091 2.067 1.74 2.326 1.473s-.364-1.343-1.364-2.441c-5.393-5.875-28.696-26.572-32.18-41.886-3.698-16.25 14.082-40.345 16.916-45.443a90.012 90.012 0 013.614 6.606 142.205 142.205 0 012.412 5.166c-1.667 2.657-18.425 22.057-14.162 37.588 1.576 5.727 13.759 13.111 18.471 15.13 2.592 1.117 3.564 2.78 4.695 4.702 1.31 2.247.118 8.025 4.428 9.86.878.375 1.67.526 2.372.526 1.217 0 2.138-.468 2.819-1.022.072.975.068 2.228.032 3.387-.043 1.505.17 2.193.533 2.222.37.032.756-.627.803-2.114.061-1.836.05-4.107-.277-5.198-.969-3.2-3.917-6.818-7.046-10.645-3.074-3.762-3.582-10.905-4.38-14.044zm-33.231-14.072c-8.453-24.923 4.618-47.625 6.516-51.045 3.643 1.437 9.223 7.895 11.595 11.646-1.728 3-17.759 22.634-18.111 39.399zm38.89 39.715c-3.902-1.663-2.541-7.142-3.801-9.302-1.145-1.952-2.326-3.968-5.325-5.256-.648-.281-1.364-.706-2.098-1.196-9.656-21.87 1.054-31.428 3.74-33.382.824 2.67 1.436 5.122 1.714 7.092.244 1.8-.213 4.672-.652 7.444-.55 3.438-1.116 6.999-.53 9.303.88 3.43 1.48 10.692 4.648 14.573 2.812 3.441 5.7 6.99 6.686 9.885-.425.576-1.76 1.959-4.382.839z" fill="#c27b55"/><path d="M594.638 349.284c5.35-8.863 22.78-33.116 36.111-29.714 10.844 2.779 10.703 17.895 11.546 26.838 1.224 13.118 1.666 35.97-1.89 45.244-3.424 8.903-14.26 26.108-20.981 32.67-8.277 8.046-21.496 33.69-23.12 36.35-2.56 4.204-7.693 10.224-15.573 9.748-11.052-.666-20.603-11.113-21.474-16.146-4.68-27.324 21.474-81.928 35.38-104.99z" fill="#f0c7b1" stroke="#c27b55" stroke-width="5.4"/><path d="M595.56 417.32c-3.13 3.827-6.077 7.445-7.046 10.646-.331 1.094-.338 3.366-.28 5.198.05 1.487.435 2.146.81 2.113.367-.029.575-.716.532-2.221-.036-1.16-.043-2.412.029-3.388.68.555 1.602 1.023 2.819 1.023.702 0 1.497-.151 2.376-.526 4.302-1.84 3.114-7.617 4.424-9.86 1.13-1.923 2.103-3.59 4.698-4.702 4.713-2.02 16.895-9.4 18.472-15.13 4.262-15.53-12.496-34.935-14.163-37.588a142.935 142.935 0 012.405-5.166 90.96 90.96 0 013.622-6.606c2.833 5.097 20.61 29.189 16.916 45.443-3.488 15.314-26.787 36.01-32.18 41.886-1.005 1.098-1.631 2.174-1.372 2.44.267.267 1.321-.381 2.326-1.472 5.457-5.915 28.911-26.676 32.519-42.552.28-1.217.471-2.473.583-3.755.76-1.213 3.254-9.338 4.543-20.22 1.638-13.829-.738-32.772-1.476-36.516 1.829-.144-.914-.799 0 0 1.12.976 1.883 2.016 2.221 1.869.339-.152.105-1.404-.929-2.474-1.407-1.45-3.837-2.883-7.524-1.684-8.928 2.894-16.045 14.122-20.448 23.036-3.82 7.747-9.67 22.04-10.71 29.563-.273 2.01.177 4.85.656 7.855.525 3.298 1.069 6.718.554 8.745-.8 3.135-1.303 10.278-4.378 14.043zm19.497-67.518c2.376-3.75 7.952-10.206 11.596-11.646 1.897 3.42 14.968 26.122 6.52 51.045-.354-16.765-16.384-36.4-18.116-39.399zM589.9 428.07c.983-2.894 3.874-6.444 6.685-9.886 3.165-3.88 3.77-11.142 4.648-14.572.583-2.304.022-5.865-.526-9.303-.442-2.772-.9-5.645-.655-7.445.274-1.969.886-4.42 1.71-7.092 2.686 1.955 13.396 11.517 3.74 33.383-.73.49-1.447.915-2.102 1.195-2.995 1.29-4.176 3.305-5.324 5.256-1.26 2.16.104 7.643-3.798 9.303-2.621 1.127-3.957-.256-4.378-.839z" fill="#c27b55"/><path d="M558.415 502.835c-18.011 36.81-72.17 102.373-110.884 119.757-19.318 8.684-75.92 9.108-95.044 0-38.325-18.24-92.754-83.005-110.883-119.757-20.207-40.947-53.464-174.79-53.507-174.985-4.68-17.957-7.186-36.81-7.214-56.243-.188-122.4 97.754-221.753 218.779-221.94 121.035-.19 219.287 98.845 219.467 221.241.032 19.44-2.409 38.297-7.028 56.272-.057.187-33.54 134.478-53.686 175.655z" fill="#f0c7b1"/><path d="M436.547 52.781c97.179 22.817 169.55 110.93 169.388 216.14-.033 19.437-2.535 38.286-7.215 56.247-.043.194-30.996 134.082-50.868 174.988-17.492 36.015-70.92 98.885-108.241 117.076-7.787 3.798-31.298 5.598-39.604 5.598-8.305 0-31.813-1.8-39.6-5.598-37.32-18.19-90.752-81.061-108.24-117.076-19.876-40.906-50.83-174.794-50.869-174.988-4.68-17.957-7.185-36.81-7.214-56.247-.162-105.21 72.201-193.323 169.387-216.14-103.763 17.622-182.758 108.9-182.588 218.826.028 19.433 2.534 38.286 7.214 56.243.043.194 33.235 134.067 53.507 174.985 18.187 36.716 72.745 101.106 110.883 119.757 9.57 4.684 33.498 6.678 46.635 6.671 13.125.011 38.847-1.987 48.409-6.67 38.138-18.656 92.693-83.038 110.884-119.758 20.271-40.918 53.467-174.79 53.503-174.985 4.68-17.957 7.185-36.81 7.214-56.243.173-109.926-78.822-201.204-182.585-218.826z" fill="#e8b9a0"/><path d="M558.415 502.835c-18.011 36.81-72.17 102.373-110.884 119.757-19.318 8.684-75.92 9.108-95.044 0-38.325-18.24-92.754-83.005-110.883-119.757-20.207-40.947-53.464-174.79-53.507-174.985-4.68-17.957-7.186-36.81-7.214-56.243-.188-122.4 97.754-221.753 218.779-221.94 121.035-.19 219.287 98.845 219.467 221.241.032 19.44-2.409 38.297-7.028 56.272-.057.187-33.54 134.478-53.686 175.655z" fill="none" stroke="#c27b55" stroke-width="5.4"/><path d="M96.227 139.237l8.297-.207c-.961 4.47-7.64 3.828-8.297.207z" fill="url(#SvgjsLinearGradient3012)" transform="matrix(3.6 0 0 3.6 40 45.646)"/><path d="M386.835 547.918c-1.336-.18-1.134-2.085.288-1.952.155.022 15.509 1.966 28.36-.774 1.39-.27 1.8 1.638.469 1.923-10.07 2.153-23.098 1.649-29.117.803zm13.464-12.852c-5.41 0-10.656-1.876-15.926-2.794-5.904-1.033-11.787-.148-17.694.374-6.034.537-19.2-.046-22.914-2.397-2.081-1.321-1.692-4.396.651-5.217 2.21-.792 5.656.85 7.888 1.25 10.339 1.854 15.782-.123 24.847-.425 13.864-.418 15.336 5.403 32.63 1.908 18.594-3.759 26.968-.915 40.31-4.932 1.828-.555 4.003-2.016 5.922-1.03 2.214 1.145 2.106 4.266-.177 5.27-12.261 5.408-25.826 3.223-39.438 5.494-5.335.886-10.652 2.499-16.099 2.499z" fill="#c27b55"/><path d="M76.732 78.383c4.587.679 7.931 3.488 10.773 7.94.004.005.013.004.018.008.007.027.021.053.026.08.255 1.007-.816 1.819-2.155 2.438-4.771.609-9.359 1.489-14.194.87-9.681-1.241-9.855-5.509-10.326-6.629-.252-1.101-.325-1.417-.311-2.473 2.332-1.366 4.043-1.647 5.854-2.005 2.124-.418 6.851-.744 10.315-.229z" fill="url(#SvgjsRadialGradient3942)" transform="matrix(3.6 0 0 3.6 40 45.646)"/><path d="M328.9 348.046c0 11.926-9.673 21.6-21.6 21.6-11.927 0-21.6-9.674-21.6-21.6 0-11.93 9.673-21.6 21.6-21.6 11.927-.004 21.6 9.67 21.6 21.6z"/><path d="M73.328 78.066l-.071.009.085.406c-.006-.137-.009-.277-.014-.415zm.013.414c.07 1.972.185 3.729.517 4.364.175-.696-.123-2.43-.517-4.364zm.518 4.365c-.043.167-.108.281-.208.319-.1.038-.226-.006-.368-.103.041.167.037.297-.036.378-.072.081-.201.101-.373.078.113.13.171.249.146.353-.027.104-.134.182-.293.242.159.063.266.141.291.245.025.104-.033.223-.145.352.17-.021.301.001.371.082.071.081.075.212.035.379.141-.097.265-.139.365-.1.101.038.166.152.206.32.081-.152.171-.249.28-.26.104-.014.216.059.329.188.001-.172.037-.299.127-.36.088-.061.219-.049.379.013-.078-.152-.105-.281-.055-.377.05-.095.173-.146.344-.166-.141-.099-.227-.2-.225-.308 0-.108.084-.209.227-.306-.17-.021-.291-.072-.342-.167-.049-.095-.022-.225.058-.377-.162.06-.292.072-.38.011-.089-.061-.125-.188-.125-.36-.112.128-.224.199-.33.185-.108-.014-.199-.108-.278-.261zm.607.075c.479-.535 1.021-2.209 1.57-4.104-.854 1.777-1.569 3.386-1.57 4.104zm1.569-4.104c.06-.122.121-.246.178-.37-.021-.007-.042-.017-.063-.026-.038.133-.076.266-.115.396zm-1.063 4.454c.672-.252 1.931-1.483 3.297-2.905-1.581 1.176-2.963 2.269-3.297 2.905zm3.297-2.905l.305-.225c-.014-.018-.03-.033-.042-.049-.087.09-.174.183-.263.274zm-3.015 3.449c.713.088 2.4-.417 4.272-1.041-1.948.308-3.678.633-4.272 1.041zm4.272-1.04l.337-.052-.014-.057-.323.109zm-4.273 1.653c.59.412 2.318.747 4.262 1.063-1.865-.633-3.548-1.148-4.262-1.063zm4.263 1.063c.095.033.191.067.285.098a.454.454 0 00.012-.05 18.227 18.227 0 01-.297-.048zm-4.551-.52c.333.637 1.708 1.738 3.282 2.924-1.359-1.43-2.609-2.668-3.282-2.924zm3.283 2.922l.179.189.03-.032c-.07-.052-.142-.105-.209-.157zm-3.788-2.575c-.003.719.703 2.331 1.547 4.113-.539-1.897-1.07-3.575-1.547-4.113zm1.547 4.114c.021.075.043.152.063.229l.039-.014a8.622 8.622 0 00-.102-.215zm-2.156-4.042c-.336.637-.461 2.39-.542 4.361.404-1.93.713-3.663.542-4.361zm-.542 4.361c-.017.075-.031.151-.047.228.014.003.025.003.039.005l.008-.233zm-.029-4.581c-.596.407-1.521 1.904-2.508 3.61 1.254-1.52 2.334-2.912 2.508-3.61zm-2.508 3.61l-.162.193.038.024.124-.217zm2.103-4.069c-.716.083-2.231.978-3.898 2.029 1.818-.762 3.418-1.491 3.898-2.029zm-3.899 2.031l-.263.11c.006.013.015.027.023.04.081-.049.161-.1.24-.15zm3.752-2.628c-.671-.257-2.429-.168-4.395-.011 1.964.168 3.722.265 4.395.011zm-4.395-.011a38.67 38.67 0 00-.323-.029c0 .019-.002.038 0 .056l.323-.027zm4.542-.583c-.473-.539-2.069-1.277-3.881-2.051 1.659 1.06 3.169 1.964 3.881 2.051zm-3.881-2.051a43.261 43.261 0 00-.315-.201.71.71 0 01-.029.055c.116.049.232.097.344.146zm4.29 1.593c-.169-.698-1.241-2.094-2.485-3.623.976 1.712 1.893 3.213 2.485 3.623zm-2.485-3.623c-.067-.115-.132-.232-.199-.349l-.056.039c.084.103.172.207.255.31z" fill="url(#SvgjsRadialGradient4071)" opacity=".7" transform="matrix(3.6 0 0 3.6 40.9 45.646)"/><path d="M74.886 78.086l-.07-.01-.024.414c.03-.134.063-.27.094-.404zm-.095.403c-.442 1.922-.787 3.649-.629 4.35.349-.628.509-2.38.629-4.35zm-.63 4.35c-.084.15-.176.243-.283.254-.106.01-.216-.064-.327-.195-.004.171-.042.297-.133.356-.09.059-.221.045-.38-.021.076.155.101.285.049.378-.053.094-.176.142-.345.158.137.101.22.204.217.312-.002.107-.089.207-.231.302.169.024.29.079.337.174.048.096.018.225-.064.375.161-.057.292-.065.379-.002.087.063.12.19.116.363.117-.125.229-.196.337-.179.105.014.194.113.27.268.045-.167.113-.279.216-.315.101-.036.225.01.363.111-.036-.167-.029-.299.044-.378.073-.079.205-.096.376-.072-.111-.132-.168-.251-.138-.355.028-.104.136-.18.299-.237-.16-.064-.263-.145-.288-.25-.023-.105.037-.223.154-.349-.172.016-.301-.006-.37-.088-.07-.082-.072-.214-.028-.379-.142.094-.268.134-.367.093-.103-.041-.165-.156-.203-.324zm.568.231c.601-.394 1.557-1.871 2.578-3.558-1.285 1.495-2.391 2.863-2.578 3.558zm2.578-3.559c.089-.102.18-.206.268-.311-.019-.013-.036-.028-.055-.042-.071.119-.142.238-.213.353zm-2.18 4.027c.715-.07 2.25-.934 3.937-1.953-1.833.727-3.45 1.425-3.937 1.953zm3.936-1.954l.354-.138c-.01-.021-.021-.04-.028-.059-.108.066-.216.133-.326.197zm-3.804 2.553c.666.27 2.426.218 4.395.101-1.961-.208-3.716-.342-4.395-.101zm4.395.1l.339.037.002-.058-.341.021zm-4.554.492c.462.551 2.046 1.321 3.842 2.129-1.639-1.095-3.131-2.027-3.842-2.129zm3.841 2.129c.083.057.167.114.25.168a1.01 1.01 0 00.025-.045c-.09-.039-.184-.081-.275-.123zm-4.261-1.679c.156.701 1.2 2.12 2.414 3.674-.943-1.734-1.83-3.254-2.414-3.674zm2.414 3.671l.125.229c.012-.009.024-.016.037-.024l-.162-.205zm-2.991-3.467c-.188.693.076 2.433.43 4.373-.031-1.972-.109-3.73-.43-4.373zm.429 4.373c.001.078.003.158.003.238.014-.002.027-.004.041-.004a19.229 19.229 0 00-.044-.234zm-1.036-4.462c-.49.528-1.064 2.189-1.652 4.072.889-1.759 1.637-3.353 1.652-4.072zm-1.653 4.072l-.104.208.036.015.068-.223zM73 84.934c-.68.239-1.962 1.446-3.357 2.838 1.607-1.144 3.009-2.209 3.357-2.838zm-3.356 2.838l-.205.145c.01.011.02.02.029.032.057-.059.117-.117.176-.177zm3.084-3.387c-.713-.104-2.407.368-4.291.952 1.955-.266 3.688-.556 4.291-.952zm-4.291.954c-.092.013-.187.024-.283.039a.32.32 0 00.013.044c.091-.026.181-.056.27-.083zm4.304-1.567c-.582-.423-2.303-.792-4.242-1.149 1.854.671 3.526 1.22 4.242 1.149zm-4.242-1.149l-.305-.112-.015.054.32.058zm4.539.612c-.318-.643-1.668-1.769-3.219-2.986 1.328 1.455 2.553 2.719 3.219 2.986zm-3.22-2.985l-.251-.275-.042.046c.099.076.198.152.293.229zm3.733 2.649c.017-.718-.656-2.344-1.464-4.142.5 1.906.998 3.593 1.464 4.142zm-1.464-4.142l-.101-.389a1.17 1.17 0 00-.063.023l.164.366z" fill="url(#SvgjsRadialGradient4075)" opacity=".4" transform="matrix(3.6 0 0 3.6 40.9 45.646)"/><path d="M315.775 348.046c0 4.68-3.791 8.47-8.471 8.47-4.677 0-8.475-3.79-8.475-8.47a8.472 8.472 0 1116.945 0z"/><path d="M315.775 348.046c0 4.68-3.791 8.47-8.471 8.47-4.677 0-8.475-3.79-8.475-8.47a8.472 8.472 0 1116.945 0z" opacity=".9"/><path d="M70.717 86.748a.981.981 0 111.091 1.63.981.981 0 01-1.091-1.63z" fill="url(#SvgjsLinearGradient4081)" opacity=".5" transform="matrix(3.6 0 0 3.6 40.9 45.646)"/><path d="M75.86 83.672c-.251.374-.969.331-1.606-.096-.638-.427-.95-1.078-.7-1.451v-.001c.25-.374.969-.331 1.605.097.639.426.951 1.076.701 1.451z" fill="url(#SvgjsLinearGradient4085)" opacity=".5" transform="matrix(3.6 0 0 3.6 40.9 45.646)"/><path d="M78.716 82.673c-.568.873-2.036.925-3.275.117-1.24-.808-1.784-2.17-1.215-3.043.568-.872 2.036-.924 3.275-.117 1.239.809 1.783 2.172 1.215 3.043z" fill="url(#SvgjsLinearGradient4089)" opacity=".75" transform="matrix(3.6 0 0 3.6 40.9 45.646)"/><path d="M238.403 346.544c11.607 40.734 26.91 83.927 63.666 85.209s79.686-26.06 80.244-80.057c.623-60.361-37.706-84.172-74.462-85.453s-86.746 19.573-69.448 80.301zm20.747-1.774c-.907-3.964-1.17-5.102-1.12-8.903 7.298-4.356 14.545-5.57 21.064-6.858 7.643-1.505 24.671-3.042 37.141-1.185 16.514 2.445 28.552 12.557 38.783 28.584.015.018.047.015.065.03.025.096.076.19.094.287.918 3.625-2.938 6.549-7.758 8.777-17.176 2.192-33.693 5.36-51.099 3.132-34.851-4.468-35.478-19.832-37.17-23.864z" fill="#f0c7b1"/><path d="M74.225 95.171c9.256 1.401 17.847-3.01 19.186-9.859 1.34-6.849-5.072-13.537-14.329-14.94-9.258-1.399-17.845 3.012-19.185 9.862-1.34 6.848 5.07 13.532 14.328 14.937zM60.563 80.617c2.125-1.141 4.04-1.547 5.851-1.905 2.123-.418 6.853-.845 10.317-.329 4.587.679 7.931 3.488 10.773 7.94.004.005.013.004.018.008.007.027.021.053.026.08.255 1.007-.816 1.819-2.155 2.438-4.771.609-9.359 1.489-14.194.87-9.681-1.241-9.855-5.509-10.326-6.629-.251-1.101-.323-1.418-.31-2.473z" fill="url(#SvgjsRadialGradient3968)" transform="matrix(3.6 0 0 3.6 40 45.646)"/><path d="M60.875 83.09c-.252-1.101-.325-1.417-.311-2.473 2.092-1.175 4.04-1.547 5.851-1.905 2.123-.418 6.853-.845 10.317-.329 4.587.679 7.931 3.488 10.773 7.94.004.005.013.004.018.008.007.027.021.053.026.08.255 1.007-.816 1.819-2.155 2.438-4.771.609-9.359 1.489-14.194.87-9.681-1.241-9.855-5.509-10.325-6.629z" fill="url(#SvgjsRadialGradient3973)" transform="matrix(3.6 0 0 3.6 40 45.646)"/><path d="M314.777 318.338c11.859 1.94 23.418 7.395 34.128 14.202 2.294 1.455 4.918 3.114 9.076 5.224-2.98-.677-5.738-2.221-8.312-3.64 2.65 2.513 5.119 5.505 7.135 8.403-9.076-11.373-26.27-19.937-40.896-22.857-14.047-2.804-39.56-.95-58.504 7.352 17.345-9.76 42.65-11.088 57.373-8.684z" fill="#c27b55"/><path d="M355.029 356.243c-10.25-15.624-22.295-25.495-38.812-27.89-17.398-2.537-40.575-.795-54.122 6.635-1.109.609-5.785 4.497-5.044.422 3.147-4.202 15.56-9.083 21.575-10.541 67.482-16.355 80.27 37.051 76.403 31.374zm-96.703-12.37c-2.578 7.427 3.1 23.955 36.522 27.011 23.742 2.167 56.761-6.3 52.682-5.807-17.204 2.12-33.75 5.217-51.188 3.02-39.535-4.967-35.057-23.569-38.016-24.224z"/><path d="M122.867 78.383c-4.586.679-7.931 3.488-10.773 7.94-.004.005-.012.004-.018.008-.006.027-.02.053-.025.08-.256 1.007.815 1.819 2.154 2.438 4.771.609 9.359 1.489 14.194.87 9.681-1.241 9.855-5.509 10.325-6.629.253-1.101.325-1.417.312-2.473-2.331-1.366-4.043-1.647-5.854-2.005-2.123-.418-6.85-.744-10.315-.229z" fill="url(#SvgjsRadialGradient3950)" transform="matrix(3.6 0 0 3.6 40 45.646)"/><path d="M514.3 348.046c0 11.926-9.673 21.6-21.596 21.6-11.927 0-21.604-9.674-21.604-21.6 0-11.93 9.677-21.6 21.604-21.6 11.923-.004 21.596 9.67 21.596 21.6z"/><path d="M125.328 78.066l-.071.009c.029.135.058.271.085.406-.006-.137-.009-.277-.014-.415zm.013.414c.069 1.972.185 3.729.518 4.364.174-.696-.124-2.43-.518-4.364zm.517 4.365c-.042.167-.108.281-.207.319-.101.038-.226-.006-.367-.103.04.167.036.297-.036.378-.072.081-.201.101-.372.078.112.13.171.249.146.353-.028.104-.134.182-.293.242.158.063.265.141.29.245.025.104-.032.223-.145.352.17-.021.3.001.37.082.071.081.075.212.035.379.141-.097.266-.139.365-.1.102.038.166.152.206.32.08-.152.172-.249.279-.26.105-.014.217.059.329.188.002-.172.037-.299.128-.36.087-.061.219-.049.379.013-.078-.152-.104-.281-.056-.377.051-.095.174-.146.345-.166-.141-.099-.228-.2-.225-.308-.001-.108.084-.209.227-.306-.171-.021-.291-.072-.342-.167-.05-.095-.022-.225.057-.377-.161.06-.291.072-.38.011s-.124-.188-.125-.36c-.111.128-.224.199-.33.185-.107-.014-.198-.108-.278-.261zm.608.075c.479-.535 1.021-2.209 1.569-4.104-.853 1.777-1.567 3.386-1.569 4.104zm1.569-4.104c.06-.122.121-.246.179-.37-.021-.007-.042-.017-.063-.026l-.116.396zm-1.063 4.454c.673-.252 1.932-1.483 3.298-2.905-1.582 1.176-2.963 2.269-3.298 2.905zm3.298-2.905l.305-.225c-.015-.018-.03-.033-.042-.049-.088.09-.175.183-.263.274zm-3.015 3.449c.713.088 2.399-.417 4.271-1.041-1.948.308-3.678.633-4.271 1.041zm4.271-1.04l.337-.052-.014-.057-.323.109zm-4.273 1.653c.591.412 2.318.747 4.263 1.063-1.866-.633-3.549-1.148-4.263-1.063zm4.263 1.063c.095.033.19.067.285.098a.92.92 0 00.013-.05 15.38 15.38 0 01-.298-.048zm-4.551-.52c.332.637 1.708 1.738 3.282 2.924-1.358-1.43-2.609-2.668-3.282-2.924zm3.283 2.922l.178.189c.01-.012.02-.021.031-.032-.07-.052-.142-.105-.209-.157zm-3.787-2.575c-.003.719.702 2.331 1.547 4.113-.54-1.897-1.071-3.575-1.547-4.113zm1.547 4.114c.021.075.043.152.063.229a.474.474 0 01.039-.014 49.358 49.358 0 00-.102-.215zm-2.157-4.042c-.336.637-.461 2.39-.542 4.361.404-1.93.713-3.663.542-4.361zm-.542 4.361c-.017.075-.031.151-.047.228.014.003.024.003.039.005l.008-.233zm-.03-4.581c-.596.407-1.521 1.904-2.508 3.61 1.255-1.52 2.334-2.912 2.508-3.61zm-2.508 3.61c-.052.063-.107.13-.161.193.013.008.024.014.037.024l.124-.217zm2.103-4.069c-.716.083-2.23.978-3.897 2.029 1.818-.762 3.418-1.491 3.897-2.029zm-3.897 2.031c-.087.036-.175.072-.263.11a.273.273 0 00.023.04l.24-.15zm3.752-2.628c-.672-.257-2.43-.168-4.396-.011 1.965.168 3.722.265 4.396.011zm-4.396-.011l-.322-.029c-.001.019-.003.038-.001.056l.323-.027zm4.543-.583c-.474-.539-2.069-1.277-3.882-2.051 1.659 1.06 3.169 1.964 3.882 2.051zm-3.882-2.051l-.315-.201a1.399 1.399 0 01-.028.055c.115.049.232.097.343.146zm4.29 1.593c-.169-.698-1.241-2.094-2.485-3.623.976 1.712 1.893 3.213 2.485 3.623zm-2.485-3.623a19.685 19.685 0 01-.198-.349l-.057.039c.085.103.172.207.255.31z" fill="url(#SvgjsRadialGradient4094)" opacity=".7" transform="matrix(3.6 0 0 3.6 39.1 45.646)"/><path d="M126.886 78.086l-.07-.01-.024.414c.029-.134.062-.27.094-.404zm-.095.403c-.443 1.922-.787 3.649-.63 4.35.35-.628.51-2.38.63-4.35zm-.63 4.35c-.084.15-.177.243-.283.254-.106.01-.216-.064-.327-.195-.004.171-.042.297-.133.356-.09.059-.221.045-.38-.021.075.155.101.285.049.378-.054.094-.176.142-.346.158.138.101.22.204.217.312-.002.107-.089.207-.23.302.17.024.289.079.337.174.048.096.018.225-.064.375.162-.057.293-.065.38-.002.087.063.12.19.115.363.117-.125.229-.196.337-.179.105.014.194.113.27.268.046-.167.113-.279.216-.315.101-.036.226.01.363.111-.035-.167-.028-.299.045-.378.072-.079.204-.096.375-.072-.11-.132-.168-.251-.138-.355.027-.104.136-.18.299-.237-.159-.064-.263-.145-.288-.25-.022-.105.038-.223.154-.349-.172.016-.302-.006-.37-.088-.07-.082-.072-.214-.027-.379-.143.094-.269.134-.368.093-.102-.041-.166-.156-.203-.324zm.568.231c.601-.394 1.557-1.871 2.578-3.558-1.285 1.495-2.391 2.863-2.578 3.558zm2.578-3.559c.089-.102.18-.206.269-.311-.02-.013-.037-.028-.056-.042-.071.119-.142.238-.213.353zm-2.18 4.027c.715-.07 2.249-.934 3.937-1.953-1.833.727-3.45 1.425-3.937 1.953zm3.936-1.954l.354-.138c-.01-.021-.021-.04-.028-.059-.108.066-.216.133-.326.197zm-3.804 2.553c.666.27 2.426.218 4.396.101-1.963-.208-3.717-.342-4.396-.101zm4.395.1l.339.037.002-.058-.341.021zm-4.554.492c.463.551 2.046 1.321 3.842 2.129-1.639-1.095-3.131-2.027-3.842-2.129zm3.841 2.129c.082.057.167.114.25.168a.328.328 0 00.024-.045 15.678 15.678 0 01-.274-.123zm-4.26-1.679c.155.701 1.199 2.12 2.413 3.674-.943-1.734-1.829-3.254-2.413-3.674zm2.414 3.671l.124.229a.337.337 0 01.037-.024c-.054-.068-.11-.138-.161-.205zm-2.992-3.467c-.188.693.076 2.433.43 4.373-.031-1.972-.109-3.73-.43-4.373zm.429 4.373c.001.078.003.158.003.238.015-.002.026-.004.04-.004a9.592 9.592 0 00-.043-.234zm-1.037-4.462c-.489.528-1.064 2.189-1.652 4.072.89-1.759 1.637-3.353 1.652-4.072zm-1.652 4.072l-.104.208.035.015.069-.223zM125 84.934c-.68.239-1.961 1.446-3.356 2.838 1.606-1.144 3.008-2.209 3.356-2.838zm-3.356 2.838l-.205.145c.01.011.02.02.029.032.057-.059.118-.117.176-.177zm3.084-3.387c-.713-.104-2.406.368-4.29.952 1.954-.266 3.688-.556 4.29-.952zm-4.29.954c-.093.013-.188.024-.283.039l.013.044c.09-.026.18-.056.27-.083zm4.303-1.567c-.582-.423-2.303-.792-4.242-1.149 1.854.671 3.526 1.22 4.242 1.149zm-4.242-1.149l-.305-.112a.752.752 0 00-.015.054l.32.058zm4.539.612c-.318-.643-1.669-1.769-3.22-2.986 1.329 1.455 2.554 2.719 3.22 2.986zm-3.22-2.985l-.251-.275-.043.046c.099.076.2.152.294.229zm3.733 2.649c.017-.718-.656-2.344-1.464-4.142.501 1.906.998 3.593 1.464 4.142zm-1.464-4.142l-.102-.389a1.17 1.17 0 00-.063.023l.165.366z" fill="url(#SvgjsRadialGradient4098)" opacity=".4" transform="matrix(3.6 0 0 3.6 39.1 45.646)"/><path d="M501.175 348.046a8.47 8.47 0 01-8.471 8.47 8.472 8.472 0 110-16.945 8.47 8.47 0 018.47 8.475z"/><path d="M501.175 348.046a8.47 8.47 0 01-8.471 8.47 8.472 8.472 0 110-16.945 8.47 8.47 0 018.47 8.475z" opacity=".9"/><path d="M122.718 86.748a.98.98 0 111.09 1.628.98.98 0 01-1.09-1.628z" fill="url(#SvgjsLinearGradient4104)" opacity=".5" transform="matrix(3.6 0 0 3.6 39.1 45.646)"/><path d="M127.859 83.672c-.251.374-.969.331-1.605-.096-.638-.427-.95-1.078-.7-1.451l.001-.001c.25-.374.969-.331 1.605.097.638.426.95 1.076.699 1.451z" fill="url(#SvgjsLinearGradient4108)" opacity=".5" transform="matrix(3.6 0 0 3.6 39.1 45.646)"/><path d="M130.717 82.673c-.569.873-2.036.925-3.276.117-1.239-.808-1.784-2.17-1.215-3.043.568-.872 2.035-.924 3.275-.117 1.239.809 1.783 2.172 1.216 3.043z" fill="url(#SvgjsLinearGradient4112)" opacity=".75" transform="matrix(3.6 0 0 3.6 39.1 45.646)"/><path d="M490.71 266.243c-36.76 1.281-75.086 25.092-74.467 85.453.555 54 43.485 81.342 80.244 80.057 36.756-1.282 58.274-62.363 63.666-85.209 14.508-61.455-32.688-81.583-69.444-80.301zm11.527 102.391c-17.406 2.228-33.923-.94-51.099-3.132-4.82-2.225-8.676-5.148-7.754-8.777.021-.097.072-.19.09-.288.021-.014.05-.01.065-.029 10.234-16.027 22.276-26.14 38.782-28.584 12.474-1.857 29.502-.32 37.145 1.185 6.52 1.285 13.767 2.498 21.064 6.858.05 3.798-.213 4.94-1.123 8.903-1.689 4.032-2.319 19.396-37.17 23.864z" fill="#f0c7b1"/><path d="M139.703 80.234c-1.34-6.85-9.928-11.261-19.186-9.862-9.257 1.403-15.669 8.091-14.328 14.94 1.339 6.849 9.93 11.26 19.186 9.859 9.258-1.405 15.668-8.089 14.328-14.937zm-.978 2.856c-.47 1.121-.645 5.388-10.325 6.629-4.835.619-9.423-.261-14.194-.87-1.339-.618-2.41-1.43-2.154-2.438.006-.027.02-.053.025-.08.006-.004.014-.003.018-.008 2.843-4.452 6.188-7.261 10.773-7.94 3.465-.516 8.195-.089 10.318.329 1.811.357 3.727.764 5.851 1.905.013 1.055-.059 1.372-.312 2.473z" fill="url(#SvgjsRadialGradient3989)" transform="matrix(3.6 0 0 3.6 40 45.646)"/><path d="M138.725 83.09c.253-1.101.325-1.417.312-2.473-2.092-1.175-4.04-1.547-5.851-1.905-2.123-.418-6.854-.845-10.318-.329-4.586.679-7.931 3.488-10.773 7.94-.004.005-.012.004-.018.008-.006.027-.02.053-.025.08-.256 1.007.815 1.819 2.154 2.438 4.771.609 9.359 1.489 14.194.87 9.68-1.241 9.855-5.509 10.325-6.629z" fill="url(#SvgjsRadialGradient3994)" transform="matrix(3.6 0 0 3.6 40 45.646)"/><path d="M483.783 318.338c-11.862 1.94-23.422 7.395-34.128 14.202-2.293 1.455-4.921 3.114-9.076 5.224 2.981-.677 5.739-2.221 8.313-3.64-2.65 2.513-5.12 5.505-7.135 8.403 9.075-11.373 26.269-19.937 40.892-22.857 14.047-2.804 39.56-.95 58.507 7.352-17.348-9.76-42.653-11.088-57.373-8.684z" fill="#c27b55"/><path d="M519.93 324.872c6.02 1.458 18.429 6.34 21.579 10.541.738 4.075-3.938.187-5.047-.42-13.55-7.431-36.724-9.174-54.119-6.636-16.517 2.394-28.57 12.265-38.812 27.89-3.866 5.673 8.921-47.733 76.4-31.375zm-17.708 43.226c-17.438 2.196-33.98-.9-51.188-3.02-4.083-.494 28.937 7.973 52.679 5.806 33.422-3.056 39.1-19.584 36.522-27.01-2.963.654 1.519 19.256-38.013 24.224z"/><path d="M141 113.974c.035 22.622-18.292 40.994-40.938 41.025-22.642.037-41.028-18.273-41.063-40.9-.035-22.62 18.292-41.064 40.937-41.1 22.643-.035 41.031 18.35 41.064 40.975z" fill="url(#SvgjsRadialGradient2883)" transform="matrix(3.6 0 0 3.6 40 45.646)"/><path d="M137.5 53.999c0 20.711-16.789 37.5-37.499 37.5-20.711 0-37.501-16.789-37.501-37.5s16.79-37.5 37.501-37.5c20.71 0 37.499 16.789 37.499 37.5z" fill="url(#SvgjsRadialGradient2887)" transform="matrix(3.6 0 0 3.6 40 45.646)"/><path d="M228.957 311.578c26.91-33.78 73.217-28.16 111.16-22.73 9.652 1.382 19.588 2.418 29.053 4.809 6.782 1.71 12.114 9.44 6.663 15.681-2.548 2.97-8.11 2.42-11.545 2.348-45.435-.918-96.793-27.047-135.33-.108zm342.32-1.368c-7.79-5.213-16.034-8.892-25.354-10.4-34.19-5.545-99.31 17.243-116.428 12.42-10.483-2.96-8.363-13.461-3.726-16.05 2.79-1.558 3.564-1.519 28.472-5.803 42.326-7.272 89.716-13.053 117.036 19.833z" fill="#2a232b"/><path d="M368.014 461.442c-3.16 7.43 21.363 15.451 30.669 15.944 10.08.53 38.325-10.44 33.537-17.97-5.036-7.903-23.915-1.03-32.061-1.03-8.108-.004-27.911-6.858-32.145 3.056z" fill="#e1ac8f"/><path d="M406.685 467.054c-.828-2.732 6.754-5.702 9.566-6.098 3.963-.576 12.096 2.887 11.368 5.731-.662 2.513-7.732-1.919-10.296-1.544-2.642.385-9.853 4.471-10.638 1.911zm-24.778-.889c3.484 0 8.654 2.243 9.604.267 1.134-2.358-7.7-5.26-10.296-4.94-2.145.252-9.838 4.734-8.78 6.62.986 1.732 4.878-1.947 9.472-1.947z" fill="#c27b55"/><path d="M400.32 448.842c2.186 0 6.272-2.664 6.452-8.028.723-21.629-3.442-85.799-6.451-85.572-2.808.212-8.162 63.493-7.013 85.572.284 5.407 4.547 8.028 7.013 8.028z" fill="#fff5ef" opacity=".2"/><path d="M248.087 149.088c33.254-31.644 160.38-2.74 198.71.86 36.51 2.816 84.693-109.22 156.974 178.125-.162 13.82-4.64 38.279-10.066 55.685-.522-.364-1.03-.75-1.551-1.102 0 0 1.865 11.725-21.813 51.804 1.257-29.063-4.363-50.015-8.97-77.09-56.553-71.954-109.401-88.827-149.617-101.358 27 31.518 53.709 60.444 65.394 92.03C428.023 313.568 360.48 244.06 360.48 244.06s5.055 16.934 99.674 103.986c-39.395-9.648-112.846-49.248-164.294-125.827-9.885 16.2 44.64 110.858 46.178 114.483-27.587-21.91-65.085-52.69-74.718-88.632 0 0-5.656 14.555-9.584 31.086-10.36 43.783-10.454 98.212-12.344 112.05-5.994-31.396-6.93-66.535-6.92-66.078-14.057 64.415-1.508 109.418-1.266 125.006-18.713-37.566-38.175-82.429-43.838-124.322.008 0 41.829-182.484 54.72-176.724z" fill="#2a232b" opacity=".1"/><path d="M145.775 289.963c.288-19.404 4.032-50.112 10.516-67.608-11.808 12.204-26.676 26.604-38.808 34.2 16.056-13.896 21.028-25.776 57.316-101.88 22.28-46.728 37.033-96.3 80.56-102.132 14.685-2.016 28.98 3.564 42.405 9.324 34.596-31.644 77.724-44.391 117.615-40.791 121.965 9.036 154.498 87.807 219.73 103.575-10.224 2.988-27.418-1.684-37.21-6.292 13.5 18.216 8.72 16.311 38.492 46.083 12.128 12.024 23.335 26.799 37.954 35.475-19.616-2.452-29.926-17.403-58.615-32.775 4.137 6.624 18.897 29.139 42.945 52.179 10.332 9.864 27.36 23.702 39.232 32.09-8.672-3.456-34.156-13.414-56.185-32.947 11.409 16.311 44.143 46.584 29.322 107.571-2.995-26.661.007-59.094-25.376-75.222 2.822 11.884 13.73 36.8 5.774 63.75h-39.366c-.17 13.82-4.831 39.361-10.469 56.767-.543-.363-1.069-.748-1.616-1.101 0 0-1.81 11.725-26.438 51.804 1.306-29.063-.8-50.015-5.591-77.09-58.846-71.954-113.829-88.827-155.668-101.358 28.095 31.517 49.727 67.813 61.891 99.403-39.765-41.976-121.802-107.161-121.802-107.161s1.31 17.517 99.763 104.565c-34.016-20.862-106.913-54.022-160.437-130.6-10.29 16.2 38.948 110.858 40.55 114.483-28.706-21.91-52.726-59.89-62.766-95.832 0 0-13.378 21.755-17.45 38.286-10.781 43.783-7.142 80.211-9.1 94.05-6.235-31.396-10.951-48.535-10.94-48.078-14.638 64.415 2.174 116.618 2.419 132.206-19.462-37.566-43.46-89.993-49.353-131.886H143.32c2.409-15.577.623-15.62 2.455-23.058z" fill="#2a232b"/><path d="M121.95 179.875c13.72-.612 21.154.357 37.282-.94 2.412-5.507 9.857-19.98 12.377-25.451-12.596 11.16-38.75 25.275-49.658 26.391z" fill="#0c080c"/><path d="M472 67.246c57.697-8.244 111.24 53.719 159.912 57.607-10.343 2.124-26.59-3.68-35.96-8.09 13.5 18.217 9.864 18.325 39.64 48.097 12.128 12.024 20.771 24.912 35.387 33.588-15.667-2.6-28.328-17.838-56.361-33.045C581.68 116.724 531.382 73.845 472 67.246zM269.493 228.443s-13.378 21.755-17.45 38.286c-10.781 43.783-7.142 80.211-9.1 94.05-6.235-31.396-10.951-48.535-10.94-48.078-.353 1.54-.666 3.063-.98 4.59-12.848 62.29 3.161 112.399 3.399 127.616-19.462-37.566-43.46-89.633-49.353-131.522H143.32c2.409-15.58.623-15.984 2.455-23.418.288-19.404 4.032-50.112 10.516-67.608-11.808 12.204-26.676 26.604-38.808 34.2 15.782-13.658 20.876-25.416 55.501-98.071 10.667-16.6 22.741-32.321 36.216-48.042-25.2 32.4-39.6 72-43.2 111.6 7.2-21.6 29.085-36.23 43.935-53.4-15.646 24.449-26.94 48.198-33.135 82.2 4.547-7.798 10.98-12.154 15.667-18-7.426 21.625-5.256 34.027-1.958 50.518 3.247-25.657 8.644-67.327 22.291-90.118 0 39.6-12.28 77.648 3.618 119.797-.147-31.201 11.671-59.598 19.894-80.932-1.635 7.748-.378 26.838.057 34.733 4.601-24.005 7.726-47.556 21.72-66.899-6.243-35.884-16.086-74.444-2.823-83.898-21.553 37.433 44.953 70.1 42.966 68.508 37.199 20.664 60.775 23.184 80.064 28.066-12.582-10.127-19.12-22.727-31.824-32.746 36 12.42 86.267 50.836 111.91 66.532 6.847 10.022 7.466 12.571 9.507 17.399-14.692-6.941-33.048-13.471-55.591-20.225 51.872 58.194 41.508 46.458 61.891 99.403-35.334-37.3-35.28-38.369-116.723-103.122 9.839 12.838 35.896 48.55 94.684 100.526-13.284-8.146-112.086-61.42-160.438-130.6-2.307 18.803.274 31.154 40.55 114.483-7.372-2.257-36.057-27.918-62.769-95.828zm198.392 35.366c30.611 14.461 64.638 37.804 100.077 81.133 4.791 27.076 6.897 48.028 5.59 77.09 5.498-8.945 9.807-16.408 13.263-22.712 12.031-21.942 13.176-29.091 13.176-29.091.547.353 1.073.738 1.616 1.101 5.638-17.406 10.3-41.864 10.47-55.684h38.638c7.963-26.946-3.776-54.875-6.599-66.759 25.384 16.128 26.064 45.864 27.252 72.576 12.132-60.012-21.42-88.704-32.04-105.876 22.212 17.244 47.02 30.708 55.696 34.164-11.884-8.388-26.676-19.692-37.008-29.556-13.1-12.55-23.825-25.848-31.569-36.446-16.87-8.647-29.433-21.596-46.447-30.103 28.537 19.022 37.527 49.215 46.642 78.282-4.37-6.311-11.437-10.57-15.228-16.243 4.503 11.83 11.12 24.098 8.186 38.76-18-25.2-25.2-61.2-54-82.8 29.085 29.085 31.1 105.69 30.978 119.333C567.231 150.301 442.988 17.933 317.2 67.246c126-39.6 234 93.6 248.4 208.8-25.2-28.8-32.4-64.8-68.4-82.8 18 18 28.8 46.8 39.6 68.4-39.6-46.8-72-93.6-126-126 25.2 28.8 57.6 54 75.6 90 10.8 10.8 14.4 25.2 21.6 36-25.2-25.2-56.865-50.98-89.528-60.538 36.677 31.587 46.836 56.592 49.413 62.701z" fill="#1b141c"/><path d="M463.958 66.63c29.851-.104 113.483 23.379 155.138 105.117-44.625-61.953-90.525-90.49-155.138-105.117zm72.284 118.365C489.615 87.334 402.473 57.27 355.771 60.287c33.742-2.167 128.85 32.4 180.471 124.708zm-232.79-86.937c-2.193-18.983-27.918-38.48-56.038-27.554-2.415.94-4.54 2.653-6.944 3.524 30.7-11.091 58.759 5.397 62.982 24.03zm-8.644 12.265c-8.175-11.685-19.238-22.46-33.512-25.912-43.39-10.49-75.856 53.755-83.365 82.508.946-3.61 38.145-90.245 84.589-79.438 13.395 3.057 23.77 12.572 32.288 22.842zm-4.341 8.298c-4.065 50.16 111.15 85.562 136.422 106.938-44.979-38.048-135.731-61.538-136.422-106.938zm198.788 111.161c-9.544-15.959-49.183-80.09-112.892-118.245-39.518-23.667-54.857-9.375-62.374-5.89 51.149-23.666 144.857 81.983 175.266 124.135z" fill="#0c080c"/><path d="M596.578 154.43s-46.793-50.468-116.564-75.171c52.15 13.032 83.138 38.686 116.564 75.172zm-115.29-70.822c30.143 10.303 82.253 68.162 88.827 79.448-17.007-29.2-56.967-71.013-88.827-79.448zm-94.957-9.393c59.137 13.569 112.979 80.133 112.979 80.133-25.103-38.851-66.395-76.288-112.979-80.133zm-51.034 34.632c28.628 7.366 93.186 60.718 96.498 65.384-9.316-13.115-65.2-60.977-96.498-65.384zm-20.566 5.602c31.456 4.072 57.546 30.406 61.437 35.73-16.351-22.367-33.123-35.042-61.437-35.73zm-3.14 9.961c30.734 31.842 76.508 41.145 93.11 62.817-22.935-29.938-65.055-36.85-93.11-62.817zm37.523 75.424c-40.36-21.903-68.277-40.925-74.53-46.264-6.61-5.634-23.473-19.188-11.143-32.943-9.15 6.012-7.236 19.375 5.026 32.13 13.334 13.874 77.04 47.077 80.647 47.077-3.492-1.897-.003 0 0 0zm28.426 12.744c-31.176-7.488-63.097-18.123-89.856-36.166-18.62-12.553-46.314-41.846-31.896-59.047 4.125-4.936 12.812-7.247 19.069-7.175-6.235-.075-13.784 1.44-18.605 5.602-13.939 12.038.965 42.822 24.25 59.544 28.177 20.235 63.561 30.053 97.038 37.242zm1.566-123.768c5.976 1.195 11.901 1.987 17.643 4.18 48.74 18.583 95.188 75.877 95.188 75.877-25.106-37.502-67.385-75.77-112.831-80.057zm4.471 15.951c56.005 21.557 117.22 93.41 120.82 95.987-27.242-41.303-73.206-84.038-120.82-95.987zm-141.566 8.748c-37.16-7.358-54.663 55.451-56.805 59.055 12.611-25.845 31.878-61.441 56.805-59.055zm.381 42.837c-31.54 29.585-24.71 67.039-24.18 84.52-.595-31.759 7.57-64.767 24.18-84.52z" fill="#3a353a"/><path d="M153.368 227.32c-14.328 39.564-10.332 80.568-10.552 84.168-.284.615-.857 1.904-1.14 2.53 3.78-.806 2.933-.021 3.883-.021 7.247-15.617 16.355-36.029 40.745-68.89-15.444 18.612-29.376 38.16-40.356 59.832 6.52-41.58 33.012-76.068 36.076-80.46-14.544 18.468-28.152 38.196-35.532 62.604.288-19.404 4.748-49.392 11.232-66.888-11.808 12.204-26.676 27.684-38.808 35.28 16.056-13.896 21.744-24.696 58.032-100.8 22.28-46.728 34.88-95.58 78.408-101.412 14.684-2.016 28.98 2.844 42.404 8.604 34.596-31.644 77.724-42.588 117.616-38.988 121.964 9.036 152.672 85.896 217.904 101.664-10.224 2.988-27.54-3.168-37.332-7.776 13.5 18.216 9.864 18.324 39.64 48.096 12.128 12.024 20.772 24.912 35.388 33.588-15.84-2.628-28.584-18.18-57.276-33.552 4.136 6.624 20.264 32.256 44.316 55.296 10.332 9.864 25.124 21.168 37.008 29.556-8.676-3.456-33.484-16.92-55.696-34.164 10.62 17.172 44.176 45.864 32.04 105.876-1.188-26.712-1.872-56.448-27.252-72.576 2.823 11.884 14.562 39.813 6.599 66.759h4.291c7.711-24.977-3.1-49.504-7.506-62.007 23.073 20.88 22.716 65.916 20.412 87.765 9.076-24.66 12.525-48.417 5.256-73.76-4.068-14.257-12.6-26.857-21.456-38.557-.612-.828-1.263-1.656-1.875-2.484 16.884 13.536 37.875 25.488 57.995 29.304 0 0-61.448-43.992-87.515-83.736 6.48 4.644 15.3 12.024 23.904 17.82 12.42 8.46 22.212 12.744 36.504 10.944-16.992-7.812-28.188-24.444-40.137-36.9-26.532-27.864-15.696-12.312-38.016-41.976 18 7.344 27.537 6.624 38.412 2.7-6.123-1.44-12.528-3.132-18.288-5.364-48.276-18.684-102.423-104.328-216.864-104.76-39.24-.18-81.507 15.012-109.152 44.964a133.251 133.251 0 00-14.544-5.652C220 33.967 198.724 91.1 171.472 149.023c-10.368 8.604-30.492 28.584-57.704 31.248 13.212.936 27.144 2.088 43.416.72-23.832 54.216-25.125 60.12-56.052 85.5 26.46-9.183 34.848-19.695 52.236-39.171zm16.092-70.956c-2.52 5.472-8.532 15.624-10.944 21.132-16.128 1.296-19.98 1.404-33.696 2.016 10.908-1.116 32.04-11.988 44.64-23.148zm14.317 143.222c0 6.66 7.64 41.638 15.883 63.202-4.248-24.516-5.076-50.112-4.424-74.952.648-25.668 4.68-50.832 12.024-75.42-16.992 70.632-7.812 162.468 26.024 227.775-6.872-34.236-10.872-68.904-6.516-103.752 1.008-8.064 2.376-16.056 4.176-23.976 0 0-3.312-30.132 5.364-80.352-5.907 41.652-1.8 82.188 6.336 123.156-.792-29.808.72-59.868 8.352-88.812 4.173-15.84 8.78-20.808 16.2-39.168-4.071-14.76-6.16-29.952-7.596-45.144 6.948 46.188 19.437 72.54 44.46 109.98 7.42 11.052 15.12 21.204 25.776 29.34-7.488-13.104-32.256-68.76-33.732-72.504-4.932-12.492-7.92-25.416-5.648-38.808-7.344-11.52-13.788-23.616-19.656-35.964 18.824 34.92 43.34 65.556 73.224 91.764 15.444 13.572 31.892 26.1 48.816 37.728 17.427 11.988 36.144 21.348 54.108 32.364-23.472-19.656-46.764-41.04-62.676-58.356-9.648-10.512-20.916-21.132-28.692-33.156-7.74-11.988-11.088-25.704-17.208-38.52 6.084 10.476 10.44 21.672 14.94 29.268 1.116 1.872 42.548 32.976 60.804 50.328 23.184 21.996 35.1 29.376 57.063 52.56-10.047-22.248-12.675-33.012-40.071-69.336-18.072-23.976-25.524-25.308-49.605-62.82 6.225 8.532 12.525 16.812 19.692 24.588 3.744 4.068 7.56 7.992 11.412 11.952 22.356 6.696 43.056 10.512 77.973 32.184 60.015 37.26 72.723 64.944 97.095 88.704-4.32-15.012-17.568-40.14-29.448-60.84-10.836-18.9-22.752-38.448-35.964-54.504 16.708 14.976 29.052 34.092 40.068 53.424 11.592 20.448 24.516 42.444 28.437 65.916-7.593-5.832-14.436-12.348-21.129-19.224 4.029 22.788 6.228 46.548 5.18 69.696 32.458-52.855 45.127-127.886 35.457-175.633 24.995 97.632-20.613 159.048-41.969 197.554 1.656-23.544-.72-79.128-2.556-95.04-7.956-9.933-64.483-70.517-148.644-97.704 14.832 14.832 27.825 30.24 38.088 48.636 9.396 16.92 18.36 34.632 23.76 54.108-19.08-19.08-39.884-36.432-60.26-54.036-20.952-18.108-41.184-37.008-62.064-55.188 5.648 8.46 12.312 16.452 53.204 56.34 21.564 21.06 55.188 51.444 55.908 52.236-3.6-1.368-63.936-32.724-92.232-54.18-29.592-22.428-61.272-50.796-81.288-82.116-1.76 21.636 11.02 44.82 17.64 58.788 7.2 15.156 17.925 41.76 29.625 61.056-18.144-10.656-31.86-25.74-42.912-43.704-11.48-18.648-21.816-36.684-28.224-57.708-5.4 10.728-11.304 21.456-13.824 33.3-2.664 12.456-4.425 25.02-5.652 37.692-2.412 25.452-5.148 51.588-3.672 77.184-6.264-19.692-11.052-39.384-13.104-60.012-6.12 34.272-.328 84.528 6.404 134.208-18.536-25.276-34.2-61.776-43.164-94.68-5.9-21.744-12.57-45.166-11.563-59.422z"/><defs id="SvgjsDefs1001"><radialGradient id="SvgjsRadialGradient2883" cx="100" cy="114" r="41" gradientUnits="userSpaceOnUse" class="svga-on-canvas-facehighlight-gradient-single-0"><stop id="SvgjsStop2884" stop-opacity=".5" stop-color="#ffe4d6" offset="0"/><stop id="SvgjsStop2885" stop-opacity="0" stop-color="#f0c7b1" offset=".9"/></radialGradient><radialGradient id="SvgjsRadialGradient2887" cx="100" cy="54" r="37" gradientUnits="userSpaceOnUse" class="svga-on-canvas-facehighlight-gradient-single-1"><stop id="SvgjsStop2888" stop-opacity=".5" stop-color="#ffe4d6" offset="0"/><stop id="SvgjsStop2889" stop-opacity="0" stop-color="#f0c7b1" offset=".9"/></radialGradient><radialGradient id="SvgjsRadialGradient3942" cx="125.903" cy="85.096" r="13.25" gradientTransform="matrix(-1.0996 .0423 .0635 .9207 206.549 .593)" gradientUnits="userSpaceOnUse" class="svga-on-canvas-eyesback-gradient-left-0"><stop id="SvgjsStop3943" stop-opacity="1" stop-color="#fff" offset="0"/><stop id="SvgjsStop3944" stop-opacity="1" stop-color="#fdfefe" offset=".544"/><stop id="SvgjsStop3945" stop-opacity="1" stop-color="#f6f8f9" offset=".74"/><stop id="SvgjsStop3946" stop-opacity="1" stop-color="#eaeff2" offset=".879"/><stop id="SvgjsStop3947" stop-opacity="1" stop-color="#d9e3e8" offset=".992"/><stop id="SvgjsStop3948" stop-opacity="1" stop-color="#d8e2e7" offset="1"/></radialGradient><radialGradient id="SvgjsRadialGradient3950" cx="125.541" cy="85.113" r="13.249" gradientTransform="matrix(1.0996 .0423 -.0635 .9207 -6.549 .593)" gradientUnits="userSpaceOnUse" class="svga-on-canvas-eyesback-gradient-right-0"><stop id="SvgjsStop3951" stop-opacity="1" stop-color="#fff" offset="0"/><stop id="SvgjsStop3952" stop-opacity="1" stop-color="#fdfefe" offset=".544"/><stop id="SvgjsStop3953" stop-opacity="1" stop-color="#f6f8f9" offset=".74"/><stop id="SvgjsStop3954" stop-opacity="1" stop-color="#eaeff2" offset=".879"/><stop id="SvgjsStop3955" stop-opacity="1" stop-color="#d9e3e8" offset=".992"/><stop id="SvgjsStop3956" stop-opacity="1" stop-color="#d8e2e7" offset="1"/></radialGradient><radialGradient id="SvgjsRadialGradient3958" cx="125.903" cy="85.096" r="13.25" gradientTransform="matrix(-1.0996 .0423 .0635 .9207 206.549 .593)" gradientUnits="userSpaceOnUse" class="svga-on-canvas-eyesfront-gradient-left-0"><stop id="SvgjsStop3959" stop-opacity="1" stop-color="#fff" offset="0"/><stop id="SvgjsStop3960" stop-opacity="1" stop-color="#fdfefe" offset=".544"/><stop id="SvgjsStop3961" stop-opacity="1" stop-color="#f6f8f9" offset=".74"/><stop id="SvgjsStop3962" stop-opacity="1" stop-color="#eaeff2" offset=".879"/><stop id="SvgjsStop3963" stop-opacity="1" stop-color="#d9e3e8" offset=".992"/><stop id="SvgjsStop3964" stop-opacity="1" stop-color="#d8e2e7" offset="1"/></radialGradient><radialGradient id="SvgjsRadialGradient3968" cx="123.371" cy="81.442" fx="136.805" fy="80.36" r="17.038" gradientTransform="matrix(.9884 .1367 .1336 -.7354 -56.068 125.3)" gradientUnits="userSpaceOnUse" class="svga-on-canvas-eyesfront-gradient-left-3"><stop id="SvgjsStop3969" stop-opacity="1" stop-color="#e1ac8f" offset="0"/><stop id="SvgjsStop3970" stop-opacity=".3" stop-color="#e1ac8f" offset=".7"/><stop id="SvgjsStop3971" stop-opacity="0" stop-color="#f0c7b1" offset="1"/></radialGradient><radialGradient id="SvgjsRadialGradient3973" cx="78.965" cy="81.143" r="26.237" gradientTransform="matrix(.7183 -.06 .0803 .6143 8.791 49.26)" gradientUnits="userSpaceOnUse" class="svga-on-canvas-eyesfront-gradient-left-4"><stop id="SvgjsStop3974" stop-opacity="0" stop-color="#000" offset=".95"/><stop id="SvgjsStop3975" stop-opacity=".2" stop-color="#000" offset="1"/></radialGradient><radialGradient id="SvgjsRadialGradient3979" cx="125.541" cy="85.113" r="13.249" gradientTransform="matrix(1.0996 .0423 -.0635 .9207 -6.549 .593)" gradientUnits="userSpaceOnUse" class="svga-on-canvas-eyesfront-gradient-right-0"><stop id="SvgjsStop3980" stop-opacity="1" stop-color="#fff" offset="0"/><stop id="SvgjsStop3981" stop-opacity="1" stop-color="#fdfefe" offset=".544"/><stop id="SvgjsStop3982" stop-opacity="1" stop-color="#f6f8f9" offset=".74"/><stop id="SvgjsStop3983" stop-opacity="1" stop-color="#eaeff2" offset=".879"/><stop id="SvgjsStop3984" stop-opacity="1" stop-color="#d9e3e8" offset=".992"/><stop id="SvgjsStop3985" stop-opacity="1" stop-color="#d8e2e7" offset="1"/></radialGradient><radialGradient id="SvgjsRadialGradient3989" cx="122.972" cy="81.425" fx="136.406" fy="80.344" r="17.037" gradientTransform="matrix(-.9884 .1367 -.1336 -.7354 255.271 125.342)" gradientUnits="userSpaceOnUse" class="svga-on-canvas-eyesfront-gradient-right-3"><stop id="SvgjsStop3990" stop-opacity="1" stop-color="#e1ac8f" offset="0"/><stop id="SvgjsStop3991" stop-opacity=".3" stop-color="#e1ac8f" offset=".7"/><stop id="SvgjsStop3992" stop-opacity="0" stop-color="#f0c7b1" offset="1"/></radialGradient><radialGradient id="SvgjsRadialGradient3994" cx="79.515" cy="81.186" r="26.237" gradientTransform="matrix(-.7183 -.06 -.0803 .6143 191.208 49.267)" gradientUnits="userSpaceOnUse" class="svga-on-canvas-eyesfront-gradient-right-4"><stop id="SvgjsStop3995" stop-opacity="0" stop-color="#000" offset=".95"/><stop id="SvgjsStop3996" stop-opacity=".2" stop-color="#000" offset="1"/></radialGradient><radialGradient id="SvgjsRadialGradient4071" cx="-568.659" cy="-521.042" r="59.751" gradientTransform="matrix(.096 -.0248 .0245 .0961 141.281 119.99)" gradientUnits="userSpaceOnUse" class="svga-on-canvas-eyesiris-gradient-left-1"><stop id="SvgjsStop4072" stop-opacity="1" stop-color="#fff" offset="0"/><stop id="SvgjsStop4073" stop-opacity="0" stop-color="#fff" offset="1"/></radialGradient><radialGradient id="SvgjsRadialGradient4075" cx="-582.838" cy="-519.099" r="59.745" gradientTransform="matrix(.0991 .00089 -.0011 .0991 131.113 135.986)" gradientUnits="userSpaceOnUse" class="svga-on-canvas-eyesiris-gradient-left-2"><stop id="SvgjsStop4076" stop-opacity="1" stop-color="#fff" offset="0"/><stop id="SvgjsStop4077" stop-opacity="0" stop-color="#fff" offset="1"/></radialGradient><radialGradient id="SvgjsRadialGradient4094" cx="-568.654" cy="-521.042" r="59.752" gradientTransform="matrix(.096 -.0248 .0245 .0961 193.28 119.99)" gradientUnits="userSpaceOnUse" class="svga-on-canvas-eyesiris-gradient-right-1"><stop id="SvgjsStop4095" stop-opacity="1" stop-color="#fff" offset="0"/><stop id="SvgjsStop4096" stop-opacity="0" stop-color="#fff" offset="1"/></radialGradient><radialGradient id="SvgjsRadialGradient4098" cx="-582.833" cy="-519.102" r="59.747" gradientTransform="matrix(.0991 .00089 -.0011 .0991 183.113 135.986)" gradientUnits="userSpaceOnUse" class="svga-on-canvas-eyesiris-gradient-right-2"><stop id="SvgjsStop4099" stop-opacity="1" stop-color="#fff" offset="0"/><stop id="SvgjsStop4100" stop-opacity="0" stop-color="#fff" offset="1"/></radialGradient><linearGradient id="SvgjsLinearGradient3012" x1="100" y1="142" x2="100" y2="139" gradientUnits="userSpaceOnUse" class="svga-on-canvas-mouth-gradient-single-0"><stop id="SvgjsStop3013" stop-opacity="1" stop-color="#e8b9a0" offset=".1"/><stop id="SvgjsStop3014" stop-opacity="1" stop-color="#e1ac8f" offset="1"/></linearGradient><linearGradient id="SvgjsLinearGradient3048" x1="100" y1="171" x2="100" y2="128" gradientUnits="userSpaceOnUse" class="svga-on-canvas-chinshadow-gradient-single-0"><stop id="SvgjsStop3049" stop-opacity=".8" stop-color="#e1ac8f" offset="0"/><stop id="SvgjsStop3050" stop-opacity="1" stop-color="#c27b55" offset=".7"/></linearGradient><linearGradient id="SvgjsLinearGradient4081" x1="122.67" y1="88.268" x2="123.606" y2="87.152" gradientTransform="translate(-52)" gradientUnits="userSpaceOnUse" class="svga-on-canvas-eyesiris-gradient-left-5"><stop id="SvgjsStop4082" stop-opacity="1" stop-color="#fff" offset="0"/><stop id="SvgjsStop4083" stop-opacity="0" stop-color="#fff" offset="1"/></linearGradient><linearGradient id="SvgjsLinearGradient4085" x1="127.212" y1="82.296" x2="126.463" y2="83.189" gradientTransform="translate(-52)" gradientUnits="userSpaceOnUse" class="svga-on-canvas-eyesiris-gradient-left-6"><stop id="SvgjsStop4086" stop-opacity="1" stop-color="#fff" offset="0"/><stop id="SvgjsStop4087" stop-opacity="0" stop-color="#fff" offset="1"/></linearGradient><linearGradient id="SvgjsLinearGradient4089" x1="129.636" y1="79.822" x2="127.91" y2="81.879" gradientTransform="translate(-52)" gradientUnits="userSpaceOnUse" class="svga-on-canvas-eyesiris-gradient-left-7"><stop id="SvgjsStop4090" stop-opacity="1" stop-color="#fff" offset="0"/><stop id="SvgjsStop4091" stop-opacity="0" stop-color="#fff" offset="1"/></linearGradient><linearGradient id="SvgjsLinearGradient4104" x1="122.67" y1="88.268" x2="123.606" y2="87.152" gradientUnits="userSpaceOnUse" class="svga-on-canvas-eyesiris-gradient-right-5"><stop id="SvgjsStop4105" stop-opacity="1" stop-color="#fff" offset="0"/><stop id="SvgjsStop4106" stop-opacity="0" stop-color="#fff" offset="1"/></linearGradient><linearGradient id="SvgjsLinearGradient4108" x1="127.212" y1="82.296" x2="126.463" y2="83.189" gradientUnits="userSpaceOnUse" class="svga-on-canvas-eyesiris-gradient-right-6"><stop id="SvgjsStop4109" stop-opacity="1" stop-color="#fff" offset="0"/><stop id="SvgjsStop4110" stop-opacity="0" stop-color="#fff" offset="1"/></linearGradient><linearGradient id="SvgjsLinearGradient4112" x1="129.636" y1="79.822" x2="127.91" y2="81.879" gradientUnits="userSpaceOnUse" class="svga-on-canvas-eyesiris-gradient-right-7"><stop id="SvgjsStop4113" stop-opacity="1" stop-color="#fff" offset="0"/><stop id="SvgjsStop4114" stop-opacity="0" stop-color="#fff" offset="1"/></linearGradient></defs></svg>